<svg xmlns="http://www.w3.org/2000/svg" width="400" height="400" viewBox="0 0 400 400">
  <rect width="400" height="400" fill="#0f0f12"/>
  <rect x="20" y="20" width="360" height="360" fill="none" stroke="#E31E24" stroke-width="1.5" opacity="0.3"/>
  <!-- Stack of cards -->
  <rect x="130" y="105" width="150" height="185" rx="4" fill="#0d0d0f" stroke="rgba(227,30,36,0.2)" stroke-width="1"/>
  <rect x="120" y="95" width="150" height="185" rx="4" fill="#111113" stroke="rgba(227,30,36,0.3)" stroke-width="1"/>
  <rect x="110" y="85" width="150" height="185" rx="4" fill="#18181b" stroke="#E31E24" stroke-width="1.5"/>
  <!-- Fork/spoon icon sketch -->
  <line x1="165" y1="110" x2="165" y2="170" stroke="#E31E24" stroke-width="2" stroke-linecap="round"/>
  <ellipse cx="165" cy="106" rx="7" ry="5" fill="none" stroke="#E31E24" stroke-width="2"/>
  <line x1="195" y1="108" x2="195" y2="170" stroke="rgba(255,255,255,0.3)" stroke-width="2" stroke-linecap="round"/>
  <line x1="188" y1="108" x2="188" y2="125" stroke="rgba(255,255,255,0.2)" stroke-width="1.5" stroke-linecap="round"/>
  <line x1="202" y1="108" x2="202" y2="125" stroke="rgba(255,255,255,0.2)" stroke-width="1.5" stroke-linecap="round"/>
  <!-- lines -->
  <line x1="125" y1="186" x2="248" y2="186" stroke="#E31E24" stroke-width="1.5" opacity="0.5"/>
  <line x1="125" y1="200" x2="230" y2="200" stroke="rgba(255,255,255,0.12)" stroke-width="1"/>
  <line x1="125" y1="212" x2="240" y2="212" stroke="rgba(255,255,255,0.12)" stroke-width="1"/>
  <line x1="125" y1="224" x2="220" y2="224" stroke="rgba(255,255,255,0.12)" stroke-width="1"/>
  <line x1="125" y1="236" x2="238" y2="236" stroke="rgba(255,255,255,0.12)" stroke-width="1"/>
  <!-- Title on card -->
  <text x="183" y="178" font-family="monospace" font-size="9" fill="#E31E24" text-anchor="middle" letter-spacing="2">WELLCORE</text>
  <!-- Bottom text -->
  <text x="200" y="322" font-family="monospace" font-size="13" fill="#E31E24" text-anchor="middle" letter-spacing="2" font-weight="bold">PACK RECETAS</text>
  <text x="200" y="341" font-family="monospace" font-size="9" fill="rgba(255,255,255,0.4)" text-anchor="middle" letter-spacing="2">50+ RECETAS FITNESS — PDF</text>
  <text x="200" y="359" font-family="monospace" font-size="9" fill="rgba(255,255,255,0.25)" text-anchor="middle" letter-spacing="1">MACROS POR PORCIÓN INCLUIDOS</text>
</svg>
